<svg id="图层_1" data-name="图层 1" xmlns="http://www.w3.org/2000/svg" viewBox="0 0 42 42"><title>icon_map</title><path d="M24.5,17A3.5,3.5,0,1,0,21,20.5,3.5,3.5,0,0,0,24.5,17ZM21,10a7.08,7.08,0,0,0-7.35,6.78c0,3.74,4.61,10.82,7.25,10.82s7.45-7.08,7.45-10.82A7.08,7.08,0,0,0,21,10Z" fill="none" stroke="#1a1a1a" stroke-linecap="round" stroke-linejoin="round" stroke-width="2"/><path d="M13,25H11.58a1,1,0,0,0-.87.51l-2.26,4A1,1,0,0,0,9.32,31H32.68a1,1,0,0,0,.87-1.49l-2.26-4a1,1,0,0,0-.87-.51H29" fill="none" stroke="#1a1a1a" stroke-linecap="round" stroke-linejoin="round" stroke-width="2"/><path d="M15,28H27" fill="none" stroke="#1a1a1a" stroke-linecap="round" stroke-linejoin="round" stroke-width="2"/></svg>