<svg id="图层_1" data-name="图层 1" xmlns="http://www.w3.org/2000/svg" viewBox="0 0 42 42"><title>icon_pack</title><path d="M30,31H11a2,2,0,0,1-2-2V13a2,2,0,0,1,2-2H30a2,2,0,0,1,2,2V29A2,2,0,0,1,30,31Z" fill="none" stroke="#1a1a1a" stroke-linecap="round" stroke-linejoin="round" stroke-width="2"/><path d="M14,16H27M18,26a1,1,0,0,1-1,1H15a1,1,0,0,1-1-1V21a1,1,0,0,1,1-1h2a1,1,0,0,1,1,1Zm9-2a1,1,0,0,1-1,1H23a1,1,0,0,1-1-1V22a1,1,0,0,1,1-1h3a1,1,0,0,1,1,1Z" fill="none" stroke="#1a1a1a" stroke-linecap="round" stroke-linejoin="round" stroke-width="2"/></svg>