<svg id="图层_1" data-name="图层 1" xmlns="http://www.w3.org/2000/svg" viewBox="0 0 42 42"><title>icon_dynamicNumber</title><path d="M17,28a2,2,0,0,0,2-2V16a2,2,0,0,0-2-2H9a2,2,0,0,0-2,2V26a2,2,0,0,0,2,2Zm17-2V16a2,2,0,0,0-2-2H24a2,2,0,0,0-2,2V26a2,2,0,0,0,2,2h8A2,2,0,0,0,34,26Z" fill="none" stroke="#1a1a1a" stroke-linecap="round" stroke-linejoin="round" stroke-width="2"/><path d="M12,18h1v6m-2,0h4" fill="none" stroke="#1a1a1a" stroke-linecap="round" stroke-linejoin="round" stroke-width="2"/><path d="M26,18h4v3H26v3h4" fill="none" stroke="#1a1a1a" stroke-linecap="round" stroke-linejoin="round" stroke-width="2"/></svg>