<svg id="图层_1" data-name="图层 1" xmlns="http://www.w3.org/2000/svg" viewBox="0 0 42 42"><title>icon_mulModuleCol</title><path d="M17,29a2,2,0,0,1-2,2H11a2,2,0,0,1-2-2V12a2,2,0,0,1,2-2h4a2,2,0,0,1,2,2Z" fill="none" stroke="#000" stroke-linecap="round" stroke-linejoin="round" stroke-width="2" fill-rule="evenodd"/><path d="M25,31h-.6A2.58,2.58,0,0,1,22,28.26V12.74A2.58,2.58,0,0,1,24.4,10h3.2A2.58,2.58,0,0,1,30,12.74V24" fill="none" stroke="#000" stroke-linecap="round" stroke-linejoin="round" stroke-width="2" fill-rule="evenodd"/><path d="M28,31V29.33A2.19,2.19,0,0,1,30,27a2.19,2.19,0,0,1,2,2.33V31" fill="none" stroke="#000" stroke-linecap="round" stroke-linejoin="round" stroke-width="2" fill-rule="evenodd"/></svg>