<svg id="图层_1" data-name="图层 1" xmlns="http://www.w3.org/2000/svg" viewBox="0 0 42 42"><title>icon_rich</title><path d="M29,28H12a3,3,0,0,1-3-3V12a3,3,0,0,1,3-3H29a3,3,0,0,1,3,3V25A3,3,0,0,1,29,28Z" fill="none" stroke="#000" stroke-linecap="round" stroke-linejoin="round" stroke-width="2" fill-rule="evenodd"/><path d="M22.55,22.07c.94-1,2.86-2.8,4.45-2.8,2.22,0,5,3.5,5,3.5M9,22.43s3.6-5.13,6.87-5.13C18.6,17.3,25.43,25,28,28M23.5,13A1.5,1.5,0,1,0,25,14.5,1.5,1.5,0,0,0,23.5,13Z" fill="none" stroke="#181919" stroke-linecap="round" stroke-linejoin="round" stroke-width="2" fill-rule="evenodd"/><path d="M9,32H32" fill="none" stroke="#181919" stroke-linecap="round" stroke-linejoin="round" stroke-width="2"/></svg>