<svg id="图层_1" data-name="图层 1" xmlns="http://www.w3.org/2000/svg" viewBox="0 0 42 42"><title>icon_floatImg</title><path d="M29,30H12a3,3,0,0,1-3-3V14a3,3,0,0,1,3-3H29a3,3,0,0,1,3,3V27A3,3,0,0,1,29,30Z" fill="none" stroke="#000" stroke-linecap="round" stroke-linejoin="round" stroke-width="2" fill-rule="evenodd"/><path d="M22.54,24.06c.94-1,2.87-2.79,4.46-2.79,2.22,0,5,3.5,5,3.5M9,24.43s3.6-5.13,6.87-5.13C18.6,19.3,25.43,27,28,30M23.5,15A1.5,1.5,0,1,0,25,16.5,1.5,1.5,0,0,0,23.5,15Z" fill="none" stroke="#181919" stroke-linecap="round" stroke-linejoin="round" stroke-width="2" fill-rule="evenodd"/></svg>