<svg id="图层_1" data-name="图层 1" xmlns="http://www.w3.org/2000/svg" viewBox="0 0 42 42"><title>icon_product</title><path d="M16,19H12a2,2,0,0,1-2-2V13a2,2,0,0,1,2-2h4a2,2,0,0,1,2,2v4A2,2,0,0,1,16,19Z" fill="none" stroke="#1a1a1a" stroke-linecap="round" stroke-linejoin="round" stroke-width="2"/><path d="M27.41,19.24a2,2,0,0,1-2.82,0l-2.83-2.83a2,2,0,0,1,0-2.82l2.83-2.83a2,2,0,0,1,2.82,0l2.83,2.83a2,2,0,0,1,0,2.82Z" fill="none" stroke="#1a1a1a" stroke-linecap="round" stroke-linejoin="round" stroke-width="2"/><path d="M18,29a2,2,0,0,1-2,2H12a2,2,0,0,1-2-2V25a2,2,0,0,1,2-2h4a2,2,0,0,1,2,2Z" fill="none" stroke="#1a1a1a" stroke-linecap="round" stroke-linejoin="round" stroke-width="2"/><path d="M30,29a2,2,0,0,1-2,2H24a2,2,0,0,1-2-2V25a2,2,0,0,1,2-2h4a2,2,0,0,1,2,2Z" fill="none" stroke="#1a1a1a" stroke-linecap="round" stroke-linejoin="round" stroke-width="2"/></svg>