<svg id="图层_1" data-name="图层 1" xmlns="http://www.w3.org/2000/svg" viewBox="0 0 42 42"><title>icon_photoMoreCard</title><path d="M16,19H12a1,1,0,0,1-1-1V12a1,1,0,0,1,1-1h4a1,1,0,0,1,1,1v6A1,1,0,0,1,16,19Z" fill="none" stroke="#1a1a1a" stroke-linecap="round" stroke-linejoin="round" stroke-width="2"/><path d="M30,19H22a1,1,0,0,1-1-1V12a1,1,0,0,1,1-1h8a1,1,0,0,1,1,1v6A1,1,0,0,1,30,19Z" fill="none" stroke="#1a1a1a" stroke-linecap="round" stroke-linejoin="round" stroke-width="2"/><path d="M21,30H12a1,1,0,0,1-1-1V24a1,1,0,0,1,1-1h9a1,1,0,0,1,1,1v5A1,1,0,0,1,21,30Z" fill="none" stroke="#1a1a1a" stroke-linecap="round" stroke-linejoin="round" stroke-width="2"/><path d="M30,30H27a1,1,0,0,1-1-1V24a1,1,0,0,1,1-1h3a1,1,0,0,1,1,1v5A1,1,0,0,1,30,30Z" fill="none" stroke="#1a1a1a" stroke-linecap="round" stroke-linejoin="round" stroke-width="2"/></svg>