<svg id="图层_1" data-name="图层 1" xmlns="http://www.w3.org/2000/svg" viewBox="0 0 42 42"><title>icon_siteQrCode</title><path d="M17,19H13a2,2,0,0,1-2-2V13a2,2,0,0,1,2-2h4a2,2,0,0,1,2,2v4A2,2,0,0,1,17,19Z" fill="none" stroke="#1a1a1a" stroke-linecap="round" stroke-linejoin="round" stroke-width="2" fill-rule="evenodd"/><path d="M29,19H25a2,2,0,0,1-2-2V13a2,2,0,0,1,2-2h4a2,2,0,0,1,2,2v4A2,2,0,0,1,29,19Z" fill="none" stroke="#1a1a1a" stroke-linecap="round" stroke-linejoin="round" stroke-width="2" fill-rule="evenodd"/><path d="M17,31H13a2,2,0,0,1-2-2V25a2,2,0,0,1,2-2h4a2,2,0,0,1,2,2v4A2,2,0,0,1,17,31Z" fill="none" stroke="#1a1a1a" stroke-linecap="round" stroke-linejoin="round" stroke-width="2" fill-rule="evenodd"/><path d="M23,31V23h4v4h4V23" fill="none" stroke="#1a1a1a" stroke-linecap="round" stroke-linejoin="round" stroke-width="2"/><path d="M26,31h2m2,0h2" fill="none" stroke="#1a1a1a" stroke-miterlimit="10" stroke-width="2"/></svg>