<svg id="图层_1" data-name="图层 1" xmlns="http://www.w3.org/2000/svg" viewBox="0 0 42 42"><title>icon_newsgroup</title><path d="M25,32H13a2,2,0,0,1-2-2V12a2,2,0,0,1,2-2H29a2,2,0,0,1,2,2V26A6,6,0,0,1,25,32Z" fill="none" stroke="#1a1a1a" stroke-linecap="round" stroke-linejoin="round" stroke-width="2" fill-rule="evenodd"/><path d="M18,19H16a1,1,0,0,1-1-1V16a1,1,0,0,1,1-1h2a1,1,0,0,1,1,1v2A1,1,0,0,1,18,19Zm1,7a1,1,0,0,1-1,1H16a1,1,0,0,1-1-1V24a1,1,0,0,1,1-1h2a1,1,0,0,1,1,1Zm4-9h4m-4,8h4" fill="none" stroke="#1a1a1a" stroke-linecap="round" stroke-linejoin="round" stroke-width="2" fill-rule="evenodd"/></svg>