<svg id="图层_1" data-name="图层 1" xmlns="http://www.w3.org/2000/svg" viewBox="0 0 40 40"><title>画板 1</title><path d="M20,13v7a2,2,0,0,1-2,2H12a2,2,0,0,1-2-2V13a2,2,0,0,1,2-2h6A2,2,0,0,1,20,13Zm10,0v2a2,2,0,0,1-2,2H25a2,2,0,0,1-2-2V13a2,2,0,0,1,2-2h3A2,2,0,0,1,30,13ZM20,27v2a2,2,0,0,1-2,2H12a2,2,0,0,1-2-2V27a2,2,0,0,1,2-2h6A2,2,0,0,1,20,27Zm10-5v7a2,2,0,0,1-2,2H25a2,2,0,0,1-2-2V22a2,2,0,0,1,2-2h3A2,2,0,0,1,30,22Z" fill="none" stroke="#050505" stroke-linecap="round" stroke-linejoin="round" stroke-width="2"/></svg>