<svg id="图层_1" data-name="图层 1" xmlns="http://www.w3.org/2000/svg" viewBox="0 0 42 42"><title>icon_fold</title><path d="M31,18H11a2,2,0,0,1-2-2V14a2,2,0,0,1,2-2H31a2,2,0,0,1,2,2v2A2,2,0,0,1,31,18Zm-.31,12H11.31A2.3,2.3,0,0,1,9,27.69V24.31A2.3,2.3,0,0,1,11.31,22H30.69A2.3,2.3,0,0,1,33,24.31v3.38A2.3,2.3,0,0,1,30.69,30ZM13,26H23" fill="none" stroke="#050505" stroke-linecap="round" stroke-linejoin="round" stroke-width="2"/><path d="M26,25.5h4m-3,1h2" fill="none" stroke="#181919" stroke-linejoin="round"/></svg>