<svg id="图层_1" data-name="图层 1" xmlns="http://www.w3.org/2000/svg" viewBox="0 0 42 42"><title>icon_vote</title><path d="M14,32H12a1,1,0,0,1-1-1V23a1,1,0,0,1,1-1h2a1,1,0,0,1,1,1v8A1,1,0,0,1,14,32Z" fill="none" stroke="#1a1a1a" stroke-linecap="round" stroke-linejoin="round" stroke-width="2"/><path d="M23,31a1,1,0,0,1-1,1H20a1,1,0,0,1-1-1V18a1,1,0,0,1,1-1h2a1,1,0,0,1,1,1Z" fill="none" stroke="#1a1a1a" stroke-linecap="round" stroke-linejoin="round" stroke-width="2"/><path d="M31,31a1,1,0,0,1-1,1H28a1,1,0,0,1-1-1V11a1,1,0,0,1,1-1h2a1,1,0,0,1,1,1Z" fill="none" stroke="#1a1a1a" stroke-linecap="round" stroke-linejoin="round" stroke-width="2"/></svg>