<svg id="图层_1" data-name="图层 1" xmlns="http://www.w3.org/2000/svg" viewBox="0 0 42 42"><title>icon_cubenav</title><path d="M19,22H13a2,2,0,0,1-2-2V13a2,2,0,0,1,2-2h6a2,2,0,0,1,2,2v7A2,2,0,0,1,19,22Zm10-5H26a2,2,0,0,1-2-2V13a2,2,0,0,1,2-2h3a2,2,0,0,1,2,2v2A2,2,0,0,1,29,17Z" fill="none" stroke="#1a1a1a" stroke-linecap="round" stroke-linejoin="round" stroke-width="2"/><path d="M19,31H13a2,2,0,0,1-2-2V27a2,2,0,0,1,2-2h6a2,2,0,0,1,2,2v2A2,2,0,0,1,19,31Zm10,0H26a2,2,0,0,1-2-2V22a2,2,0,0,1,2-2h3a2,2,0,0,1,2,2v7A2,2,0,0,1,29,31Z" fill="none" stroke="#1a1a1a" stroke-linecap="round" stroke-linejoin="round" stroke-width="2"/></svg>