<?xml version="1.0" encoding="utf-8"?>
<!-- Generator: Adobe Illustrator 22.1.0, SVG Export Plug-In . SVG Version: 6.00 Build 0)  -->
<svg version="1.1" id="图层_1" xmlns="http://www.w3.org/2000/svg" xmlns:xlink="http://www.w3.org/1999/xlink" x="0px" y="0px"
	 viewBox="0 0 42 42" style="enable-background:new 0 0 42 42;" xml:space="preserve">
<style type="text/css">
	.st0{fill:none;stroke:#000000;stroke-width:2;stroke-linecap:round;stroke-linejoin:round;}
</style>
<title>画板 1</title>
<path class="st0" d="M10.5,25h-0.1l-1.5-8c0-1.1,0.9-2,2-2h20c1.1-0.1,2.1,0.7,2.2,1.9c0,0.4,0,0.8-0.2,1.1H22c-1.6,0-3.1,0-3.4,1.9
	s-0.4,2.6-0.5,3.1c0,1.1-0.9,2-2,2L10.5,25z"/>
<path class="st0" d="M10.9,28h10c0.8,0,1.6-0.1,1.9-2c0.2-1.3,0.4-1.9,0.6-3.2s0.7-1.8,2.5-1.8h5.6c0.8,0,0.9,0,0.7,1s-0.4,2-0.4,2
	h-4c-0.8,0-1.5,0.7-1.5,1.5S27,27,27.9,27h3.5c0,0-0.1,0.8-0.5,2.6C30.5,31,29.5,31,28,31H13C11.9,31,11.2,30.2,10.9,28z"/>
<path class="st0" d="M25.3,15c-0.2-2.4-2.2-4.2-4.6-4c-2.2,0.1-3.9,1.9-4,4H25.3z"/>
</svg>
