<svg id="图层_1" data-name="图层 1" xmlns="http://www.w3.org/2000/svg" viewBox="0 0 42 42"><title>icon_panorama</title><path d="M10.84,11a33.91,33.91,0,0,0,10,1.82A29.22,29.22,0,0,0,30.16,11,1.82,1.82,0,0,1,32,12.82V29.18A1.82,1.82,0,0,1,30.16,31a29.22,29.22,0,0,0-9.35-1.82,33.91,33.91,0,0,0-10,1.82A1.82,1.82,0,0,1,9,29.18V12.82A1.82,1.82,0,0,1,10.84,11Z" fill="none" stroke="#181919" stroke-linecap="round" stroke-linejoin="round" stroke-width="2" fill-rule="evenodd"/><path d="M22.5,24.9c.93-1,2.91-2.93,4.5-2.93,2.22,0,5,3.5,5,3.5M9,25.13S12.6,20,15.87,20c2.4,0,8.76,7,11.33,10M24.5,16A1.5,1.5,0,1,0,26,17.5,1.5,1.5,0,0,0,24.5,16Z" fill="none" stroke="#181919" stroke-linecap="round" stroke-linejoin="round" stroke-width="2" fill-rule="evenodd"/></svg>