<svg id="图层_1" data-name="图层 1" xmlns="http://www.w3.org/2000/svg" viewBox="0 0 42 42"><title>icon_serviceOnline</title><path d="M12,18a2,2,0,0,1,2,2v4a2,2,0,0,1-2,2h0a2,2,0,0,1-2-2V20a2,2,0,0,1,2-2h0a9,9,0,0,1,18,0" fill="none" stroke="#1a1a1a" stroke-linecap="round" stroke-linejoin="round" stroke-width="2" fill-rule="evenodd"/><path d="M28.74,25.53A1.94,1.94,0,0,1,28,24V20a2,2,0,0,1,2-2h0a2,2,0,0,1,2,2v4a2,2,0,0,1-2,2h0a2,2,0,0,1-1.27-.46A8,8,0,0,1,23,29.8a2,2,0,1,0,0,.2,1.21,1.21,0,0,0,0-.19" fill="none" stroke="#1a1a1a" stroke-linecap="round" stroke-linejoin="round" stroke-width="2" fill-rule="evenodd"/></svg>