<svg id="图层_1" data-name="图层 1" xmlns="http://www.w3.org/2000/svg" viewBox="0 0 42 42"><title>icon_list_photos</title><path d="M27,34H10a3,3,0,0,1-3-3V18a3,3,0,0,1,3-3H27a3,3,0,0,1,3,3V31A3,3,0,0,1,27,34Z" fill="none" stroke="#000" stroke-linecap="round" stroke-linejoin="round" stroke-width="2" fill-rule="evenodd"/><path d="M20.54,28.06c.93-1,2.87-2.79,4.46-2.79,2.21,0,5,3.5,5,3.5M7,28.43s3.6-5.13,6.87-5.13C16.6,23.3,23.43,31,26,34M21.5,19A1.5,1.5,0,1,0,23,20.5,1.5,1.5,0,0,0,21.5,19Z" fill="none" stroke="#181919" stroke-linecap="round" stroke-linejoin="round" stroke-width="2" fill-rule="evenodd"/><path d="M12.39,15l11.7-6.76a1.82,1.82,0,0,1,2.48.67L27.78,11M29.9,28l4.19-2.42a1.82,1.82,0,0,0,.67-2.48L33.55,21" fill="none" stroke="#000" stroke-linecap="round" stroke-linejoin="round" stroke-width="2" fill-rule="evenodd" opacity="0.4"/></svg>