<svg id="图层_1" data-name="图层 1" xmlns="http://www.w3.org/2000/svg" viewBox="0 0 42 42"><title>icon_productNav</title><path d="M15,19H11a2,2,0,0,1-2-2V13a2,2,0,0,1,2-2h4a2,2,0,0,1,2,2v4A2,2,0,0,1,15,19Z" fill="none" stroke="#1a1a1a" stroke-linecap="round" stroke-linejoin="round" stroke-width="2"/><path d="M17,29a2,2,0,0,1-2,2H11a2,2,0,0,1-2-2V25a2,2,0,0,1,2-2h4a2,2,0,0,1,2,2Z" fill="none" stroke="#1a1a1a" stroke-linecap="round" stroke-linejoin="round" stroke-width="2"/><path d="M21,15H34M21,27H34" fill="none" stroke="#1a1a1a" stroke-linecap="round" stroke-linejoin="round" stroke-width="2"/></svg>