<svg id="图层_1" data-name="图层 1" xmlns="http://www.w3.org/2000/svg" viewBox="0 0 42 42"><title>icon_ifram</title><path d="M24,31H13a2,2,0,0,1-2-2V12a2,2,0,0,1,2-2H28a2,2,0,0,1,2,2V25A6,6,0,0,1,24,31Z" fill="none" stroke="#000" stroke-linecap="round" stroke-linejoin="round" stroke-width="2"/><path d="M16.76,18.51l-2.26,2,2.26,2m7.48-4,2.26,2-2.26,2m-2.7-5.39-2.08,6.8" fill="none" stroke="#000" stroke-linecap="round" stroke-linejoin="round" stroke-width="2"/><path d="M29.8,26H26a2,2,0,0,0-2,2v2" fill="none" stroke="#000" stroke-linecap="round" stroke-linejoin="round" stroke-width="2"/></svg>