<svg id="图层_1" data-name="图层 1" xmlns="http://www.w3.org/2000/svg" viewBox="0 0 42 42"><title>icon_notice</title><path d="M30,32H11a2,2,0,0,1-2-2V17a2,2,0,0,1,2-2H30a2,2,0,0,1,2,2V30A2,2,0,0,1,30,32Z" fill="none" stroke="#1a1a1a" stroke-linecap="round" stroke-linejoin="round" stroke-width="2"/><path d="M15,15l6-5,6,5" fill="none" stroke="#1a1a1a" stroke-linecap="round" stroke-linejoin="round" stroke-width="2"/><path d="M14.5,24h0a.5.5,0,0,1-.5-.5h0a.5.5,0,0,1,.5-.5h0a.5.5,0,0,1,.5.5h0A.5.5,0,0,1,14.5,24Zm6.5-.5a.5.5,0,0,1-.5.5h0a.5.5,0,0,1-.5-.5h0a.5.5,0,0,1,.5-.5h0a.5.5,0,0,1,.5.5Zm6,0a.5.5,0,0,1-.5.5h0a.5.5,0,0,1-.5-.5h0a.5.5,0,0,1,.5-.5h0a.5.5,0,0,1,.5.5Z" fill="none" stroke="#1a1a1a" stroke-linecap="round" stroke-linejoin="round" stroke-width="2"/></svg>