<svg id="图层_1" data-name="图层 1" xmlns="http://www.w3.org/2000/svg" viewBox="0 0 42 42"><title>icon_flash</title><path d="M23,31H13a2,2,0,0,1-2-2V12a2,2,0,0,1,2-2H28a2,2,0,0,1,2,2V24A7,7,0,0,1,23,31Z" fill="none" stroke="#1a1a1a" stroke-linecap="round" stroke-linejoin="round" stroke-width="2"/><path d="M24,16c-1,0-4,.47-4.61,5.45C18.64,26.1,16,25.68,16,25.68M22.6,20H19.7" fill="none" stroke="#1a1a1a" stroke-linecap="round" stroke-linejoin="round" stroke-width="2"/><path d="M29.71,26H25a1,1,0,0,0-1,1v3.94" fill="none" stroke="#1a1a1a" stroke-linecap="round" stroke-linejoin="round" stroke-width="2"/></svg>