<svg id="图层_1" data-name="图层 1" xmlns="http://www.w3.org/2000/svg" viewBox="0 0 42 42"><title>icon_productMallGroup</title><path d="M11,10h1a2,2,0,0,1,2,2V29a2,2,0,0,1-2,2H11a2,2,0,0,1-2-2V12A2,2,0,0,1,11,10Z" fill="none" stroke="#383f5d" stroke-linecap="round" stroke-linejoin="round" stroke-width="2" fill-rule="evenodd" opacity="0.4"/><path d="M32,14V29a2,2,0,0,1-2,2H16a2,2,0,0,1-2-2V23a1,1,0,0,0-1-1H11a2,2,0,0,1-2-2V19a2,2,0,0,1,2-2h2a1,1,0,0,0,1-1V14a2,2,0,0,1,2-2H30A2,2,0,0,1,32,14ZM19,18h4m-4,6h8" fill="none" stroke="#1a1a1a" stroke-linecap="round" stroke-linejoin="round" stroke-width="2"/></svg>